<mxfile host="app.diagrams.net" agent="Mozilla/5.0 (Macintosh; Intel Mac OS X 10_15_7) AppleWebKit/605.1.15 (KHTML, like Gecko) Version/18.3 Safari/605.1.15" version="26.0.14">
  <diagram name="Pagina-1" id="n8vUfcBCYGvi-KSIncqK">
    <mxGraphModel dx="1692" dy="2122" grid="0" gridSize="10" guides="1" tooltips="1" connect="1" arrows="1" fold="1" page="1" pageScale="1" pageWidth="827" pageHeight="1169" math="0" shadow="0">
      <root>
        <mxCell id="0" />
        <mxCell id="1" parent="0" />
        <mxCell id="recA4Ju6VlsZRzYj6V2U-21" style="edgeStyle=orthogonalEdgeStyle;rounded=0;orthogonalLoop=1;jettySize=auto;html=1;exitX=0.5;exitY=1;exitDx=0;exitDy=0;entryX=0.5;entryY=0;entryDx=0;entryDy=0;strokeWidth=2;" edge="1" parent="1" source="recA4Ju6VlsZRzYj6V2U-23" target="recA4Ju6VlsZRzYj6V2U-25">
          <mxGeometry relative="1" as="geometry" />
        </mxCell>
        <mxCell id="recA4Ju6VlsZRzYj6V2U-80" style="edgeStyle=orthogonalEdgeStyle;rounded=0;orthogonalLoop=1;jettySize=auto;html=1;exitX=1;exitY=0.5;exitDx=0;exitDy=0;strokeWidth=2;" edge="1" parent="1" source="recA4Ju6VlsZRzYj6V2U-23" target="recA4Ju6VlsZRzYj6V2U-72">
          <mxGeometry relative="1" as="geometry" />
        </mxCell>
        <mxCell id="recA4Ju6VlsZRzYj6V2U-23" value="for-j&lt;div&gt;{time}&lt;/div&gt;" style="rhombus;whiteSpace=wrap;html=1;fontSize=14;startSize=30;fontStyle=1;strokeWidth=2;" vertex="1" parent="1">
          <mxGeometry x="325" y="10" width="100" height="70" as="geometry" />
        </mxCell>
        <mxCell id="recA4Ju6VlsZRzYj6V2U-24" style="edgeStyle=orthogonalEdgeStyle;rounded=0;orthogonalLoop=1;jettySize=auto;html=1;exitX=0.5;exitY=1;exitDx=0;exitDy=0;entryX=0.5;entryY=0;entryDx=0;entryDy=0;strokeWidth=2;" edge="1" parent="1" source="recA4Ju6VlsZRzYj6V2U-25" target="recA4Ju6VlsZRzYj6V2U-28">
          <mxGeometry relative="1" as="geometry" />
        </mxCell>
        <mxCell id="recA4Ju6VlsZRzYj6V2U-25" value="&lt;b&gt;&lt;font style=&quot;font-size: 14px;&quot;&gt;Reset Parameters&lt;/font&gt;&lt;/b&gt;&lt;div&gt;&lt;i&gt;initial total temperature, initial temperature, initial total pressure, initial gas density&lt;/i&gt;&lt;/div&gt;" style="rounded=1;whiteSpace=wrap;html=1;fontSize=12;startSize=30;fontStyle=0;strokeWidth=2;" vertex="1" parent="1">
          <mxGeometry x="277.5" y="100" width="195" height="70" as="geometry" />
        </mxCell>
        <mxCell id="recA4Ju6VlsZRzYj6V2U-26" style="edgeStyle=orthogonalEdgeStyle;rounded=0;orthogonalLoop=1;jettySize=auto;html=1;exitX=0.5;exitY=1;exitDx=0;exitDy=0;entryX=0.5;entryY=0;entryDx=0;entryDy=0;strokeWidth=2;" edge="1" parent="1" source="recA4Ju6VlsZRzYj6V2U-28" target="recA4Ju6VlsZRzYj6V2U-30">
          <mxGeometry relative="1" as="geometry" />
        </mxCell>
        <mxCell id="recA4Ju6VlsZRzYj6V2U-27" style="edgeStyle=orthogonalEdgeStyle;rounded=0;orthogonalLoop=1;jettySize=auto;html=1;exitX=1;exitY=0.5;exitDx=0;exitDy=0;entryX=1;entryY=0.5;entryDx=0;entryDy=0;strokeWidth=2;" edge="1" parent="1" source="recA4Ju6VlsZRzYj6V2U-28" target="recA4Ju6VlsZRzYj6V2U-71">
          <mxGeometry relative="1" as="geometry">
            <Array as="points">
              <mxPoint x="555" y="225" />
              <mxPoint x="555" y="1125" />
            </Array>
          </mxGeometry>
        </mxCell>
        <mxCell id="recA4Ju6VlsZRzYj6V2U-28" value="for-i&lt;div&gt;{space}&lt;/div&gt;" style="rhombus;whiteSpace=wrap;html=1;fontSize=14;startSize=30;fontStyle=1;strokeWidth=2;" vertex="1" parent="1">
          <mxGeometry x="325" y="190" width="100" height="70" as="geometry" />
        </mxCell>
        <mxCell id="recA4Ju6VlsZRzYj6V2U-29" style="edgeStyle=orthogonalEdgeStyle;rounded=0;orthogonalLoop=1;jettySize=auto;html=1;exitX=0.5;exitY=1;exitDx=0;exitDy=0;entryX=0.5;entryY=0;entryDx=0;entryDy=0;strokeWidth=2;" edge="1" parent="1" source="recA4Ju6VlsZRzYj6V2U-30" target="recA4Ju6VlsZRzYj6V2U-35">
          <mxGeometry relative="1" as="geometry" />
        </mxCell>
        <mxCell id="recA4Ju6VlsZRzYj6V2U-30" value="x = space" style="rounded=1;whiteSpace=wrap;html=1;fontSize=12;startSize=30;fontStyle=0;strokeWidth=2;" vertex="1" parent="1">
          <mxGeometry x="337.5" y="280" width="75" height="30" as="geometry" />
        </mxCell>
        <mxCell id="recA4Ju6VlsZRzYj6V2U-32" style="edgeStyle=orthogonalEdgeStyle;rounded=0;orthogonalLoop=1;jettySize=auto;html=1;exitX=0;exitY=0.5;exitDx=0;exitDy=0;entryX=0.5;entryY=0;entryDx=0;entryDy=0;strokeWidth=2;" edge="1" parent="1" source="recA4Ju6VlsZRzYj6V2U-35" target="recA4Ju6VlsZRzYj6V2U-39">
          <mxGeometry relative="1" as="geometry" />
        </mxCell>
        <mxCell id="recA4Ju6VlsZRzYj6V2U-33" value="&amp;nbsp;1 &amp;lt; i &amp;lt; N&amp;nbsp;" style="edgeLabel;html=1;align=center;verticalAlign=middle;resizable=0;points=[];" vertex="1" connectable="0" parent="recA4Ju6VlsZRzYj6V2U-32">
          <mxGeometry x="-0.3524" y="1" relative="1" as="geometry">
            <mxPoint x="-6" y="-1" as="offset" />
          </mxGeometry>
        </mxCell>
        <mxCell id="recA4Ju6VlsZRzYj6V2U-34" value="&amp;nbsp;i == N&amp;nbsp;" style="edgeStyle=orthogonalEdgeStyle;rounded=0;orthogonalLoop=1;jettySize=auto;html=1;exitX=1;exitY=0.5;exitDx=0;exitDy=0;entryX=0.5;entryY=0;entryDx=0;entryDy=0;strokeWidth=2;" edge="1" parent="1" source="recA4Ju6VlsZRzYj6V2U-35" target="recA4Ju6VlsZRzYj6V2U-37">
          <mxGeometry x="-0.2381" relative="1" as="geometry">
            <mxPoint as="offset" />
          </mxGeometry>
        </mxCell>
        <mxCell id="recA4Ju6VlsZRzYj6V2U-35" value="if" style="rhombus;whiteSpace=wrap;html=1;fontSize=14;startSize=30;fontStyle=1;strokeWidth=2;" vertex="1" parent="1">
          <mxGeometry x="365" y="330" width="20" height="35" as="geometry" />
        </mxCell>
        <mxCell id="recA4Ju6VlsZRzYj6V2U-36" style="edgeStyle=orthogonalEdgeStyle;rounded=0;orthogonalLoop=1;jettySize=auto;html=1;exitX=0.5;exitY=1;exitDx=0;exitDy=0;entryX=1;entryY=0.5;entryDx=0;entryDy=0;strokeWidth=2;" edge="1" parent="1" source="recA4Ju6VlsZRzYj6V2U-37" target="recA4Ju6VlsZRzYj6V2U-41">
          <mxGeometry relative="1" as="geometry" />
        </mxCell>
        <mxCell id="recA4Ju6VlsZRzYj6V2U-37" value="all parameters&lt;div&gt;(j, i)&lt;/div&gt;" style="rounded=1;whiteSpace=wrap;html=1;fontSize=12;startSize=30;fontStyle=0;strokeWidth=2;" vertex="1" parent="1">
          <mxGeometry x="412.5" y="380" width="90" height="40" as="geometry" />
        </mxCell>
        <mxCell id="recA4Ju6VlsZRzYj6V2U-38" style="edgeStyle=orthogonalEdgeStyle;rounded=0;orthogonalLoop=1;jettySize=auto;html=1;exitX=0.5;exitY=1;exitDx=0;exitDy=0;entryX=0;entryY=0.5;entryDx=0;entryDy=0;strokeWidth=2;" edge="1" parent="1" source="recA4Ju6VlsZRzYj6V2U-39" target="recA4Ju6VlsZRzYj6V2U-41">
          <mxGeometry relative="1" as="geometry" />
        </mxCell>
        <mxCell id="recA4Ju6VlsZRzYj6V2U-39" value="parameters old (j,i)&lt;div&gt;new (j,i+1)&lt;/div&gt;" style="rounded=1;whiteSpace=wrap;html=1;fontSize=12;startSize=30;fontStyle=0;strokeWidth=2;" vertex="1" parent="1">
          <mxGeometry x="237.5" y="375" width="100" height="50" as="geometry" />
        </mxCell>
        <mxCell id="recA4Ju6VlsZRzYj6V2U-40" style="edgeStyle=orthogonalEdgeStyle;rounded=0;orthogonalLoop=1;jettySize=auto;html=1;exitX=0.5;exitY=1;exitDx=0;exitDy=0;entryX=0.5;entryY=0;entryDx=0;entryDy=0;strokeWidth=2;" edge="1" parent="1" source="recA4Ju6VlsZRzYj6V2U-41" target="recA4Ju6VlsZRzYj6V2U-55">
          <mxGeometry relative="1" as="geometry" />
        </mxCell>
        <mxCell id="recA4Ju6VlsZRzYj6V2U-41" value="Radii, Mass Flow" style="rounded=1;whiteSpace=wrap;html=1;fontSize=12;startSize=30;fontStyle=0;strokeWidth=2;" vertex="1" parent="1">
          <mxGeometry x="321.25" y="440" width="107.5" height="40" as="geometry" />
        </mxCell>
        <mxCell id="recA4Ju6VlsZRzYj6V2U-42" style="edgeStyle=orthogonalEdgeStyle;rounded=0;orthogonalLoop=1;jettySize=auto;html=1;exitX=0;exitY=0.5;exitDx=0;exitDy=0;entryX=0.5;entryY=0;entryDx=0;entryDy=0;fontStyle=0;strokeWidth=2;" edge="1" parent="1" source="recA4Ju6VlsZRzYj6V2U-45" target="recA4Ju6VlsZRzYj6V2U-49">
          <mxGeometry relative="1" as="geometry" />
        </mxCell>
        <mxCell id="recA4Ju6VlsZRzYj6V2U-43" style="edgeStyle=orthogonalEdgeStyle;rounded=0;orthogonalLoop=1;jettySize=auto;html=1;exitX=1;exitY=0.5;exitDx=0;exitDy=0;entryX=0.5;entryY=0;entryDx=0;entryDy=0;fontStyle=0;strokeWidth=2;" edge="1" parent="1" source="recA4Ju6VlsZRzYj6V2U-45" target="recA4Ju6VlsZRzYj6V2U-47">
          <mxGeometry relative="1" as="geometry" />
        </mxCell>
        <mxCell id="recA4Ju6VlsZRzYj6V2U-44" value="&amp;nbsp;i == 1&amp;nbsp;" style="edgeLabel;html=1;align=center;verticalAlign=middle;resizable=0;points=[];" vertex="1" connectable="0" parent="recA4Ju6VlsZRzYj6V2U-43">
          <mxGeometry x="-0.3217" y="-1" relative="1" as="geometry">
            <mxPoint y="1" as="offset" />
          </mxGeometry>
        </mxCell>
        <mxCell id="recA4Ju6VlsZRzYj6V2U-45" value="if" style="rhombus;whiteSpace=wrap;html=1;fontSize=14;startSize=30;fontStyle=1;strokeWidth=2;" vertex="1" parent="1">
          <mxGeometry x="303.75" y="560" width="20" height="35" as="geometry" />
        </mxCell>
        <mxCell id="recA4Ju6VlsZRzYj6V2U-46" style="edgeStyle=orthogonalEdgeStyle;rounded=0;orthogonalLoop=1;jettySize=auto;html=1;entryX=1;entryY=0.5;entryDx=0;entryDy=0;fontStyle=0;strokeWidth=2;" edge="1" parent="1" source="recA4Ju6VlsZRzYj6V2U-47" target="recA4Ju6VlsZRzYj6V2U-51">
          <mxGeometry relative="1" as="geometry" />
        </mxCell>
        <mxCell id="recA4Ju6VlsZRzYj6V2U-47" value="&lt;span style=&quot;font-size: 14px;&quot;&gt;&lt;b&gt;Variations&lt;/b&gt;&lt;/span&gt;&lt;br&gt;&lt;div&gt;&lt;span&gt;Initial port area&lt;/span&gt;&lt;/div&gt;&lt;div&gt;&lt;span&gt;initial gas velocity&lt;/span&gt;&lt;/div&gt;&lt;div&gt;&lt;span&gt;initial Mach number&lt;/span&gt;&lt;/div&gt;" style="rounded=1;whiteSpace=wrap;html=1;fontSize=12;startSize=30;fontStyle=0;strokeWidth=2;" vertex="1" parent="1">
          <mxGeometry x="351.25" y="600" width="130" height="70" as="geometry" />
        </mxCell>
        <mxCell id="recA4Ju6VlsZRzYj6V2U-48" style="edgeStyle=orthogonalEdgeStyle;rounded=0;orthogonalLoop=1;jettySize=auto;html=1;exitX=0.5;exitY=1;exitDx=0;exitDy=0;entryX=0;entryY=0.5;entryDx=0;entryDy=0;fontStyle=0;strokeWidth=2;" edge="1" parent="1" source="recA4Ju6VlsZRzYj6V2U-49" target="recA4Ju6VlsZRzYj6V2U-51">
          <mxGeometry relative="1" as="geometry" />
        </mxCell>
        <mxCell id="recA4Ju6VlsZRzYj6V2U-49" value="Mach number constant" style="rounded=1;whiteSpace=wrap;html=1;fontSize=12;startSize=30;fontStyle=0;strokeWidth=2;" vertex="1" parent="1">
          <mxGeometry x="185" y="615" width="91.25" height="40" as="geometry" />
        </mxCell>
        <mxCell id="recA4Ju6VlsZRzYj6V2U-50" style="edgeStyle=orthogonalEdgeStyle;rounded=0;orthogonalLoop=1;jettySize=auto;html=1;exitX=0.5;exitY=1;exitDx=0;exitDy=0;entryX=0;entryY=0.5;entryDx=0;entryDy=0;strokeWidth=2;" edge="1" parent="1" source="recA4Ju6VlsZRzYj6V2U-51" target="recA4Ju6VlsZRzYj6V2U-59">
          <mxGeometry relative="1" as="geometry">
            <Array as="points">
              <mxPoint x="325" y="754" />
            </Array>
          </mxGeometry>
        </mxCell>
        <mxCell id="recA4Ju6VlsZRzYj6V2U-51" value="Initial Mach number" style="rounded=1;whiteSpace=wrap;html=1;fontSize=12;startSize=30;fontStyle=0;strokeWidth=2;" vertex="1" parent="1">
          <mxGeometry x="265" y="690" width="120" height="30" as="geometry" />
        </mxCell>
        <mxCell id="recA4Ju6VlsZRzYj6V2U-52" style="edgeStyle=orthogonalEdgeStyle;rounded=0;orthogonalLoop=1;jettySize=auto;html=1;exitX=0;exitY=0.5;exitDx=0;exitDy=0;entryX=0.5;entryY=0;entryDx=0;entryDy=0;strokeWidth=2;" edge="1" parent="1" source="recA4Ju6VlsZRzYj6V2U-55" target="recA4Ju6VlsZRzYj6V2U-45">
          <mxGeometry relative="1" as="geometry" />
        </mxCell>
        <mxCell id="recA4Ju6VlsZRzYj6V2U-53" style="edgeStyle=orthogonalEdgeStyle;rounded=0;orthogonalLoop=1;jettySize=auto;html=1;exitX=1;exitY=0.5;exitDx=0;exitDy=0;entryX=0.5;entryY=0;entryDx=0;entryDy=0;strokeWidth=2;" edge="1" parent="1" source="recA4Ju6VlsZRzYj6V2U-55" target="recA4Ju6VlsZRzYj6V2U-57">
          <mxGeometry relative="1" as="geometry" />
        </mxCell>
        <mxCell id="recA4Ju6VlsZRzYj6V2U-54" value="&amp;nbsp;j == 1&amp;nbsp;&lt;div&gt;i == 1&lt;/div&gt;" style="edgeLabel;html=1;align=center;verticalAlign=middle;resizable=0;points=[];" vertex="1" connectable="0" parent="recA4Ju6VlsZRzYj6V2U-53">
          <mxGeometry x="-0.0958" y="2" relative="1" as="geometry">
            <mxPoint as="offset" />
          </mxGeometry>
        </mxCell>
        <mxCell id="recA4Ju6VlsZRzYj6V2U-55" value="if" style="rhombus;whiteSpace=wrap;html=1;fontSize=14;startSize=30;fontStyle=1;strokeWidth=2;" vertex="1" parent="1">
          <mxGeometry x="365" y="500" width="20" height="35" as="geometry" />
        </mxCell>
        <mxCell id="recA4Ju6VlsZRzYj6V2U-56" style="edgeStyle=orthogonalEdgeStyle;rounded=0;orthogonalLoop=1;jettySize=auto;html=1;entryX=1;entryY=0.5;entryDx=0;entryDy=0;strokeWidth=2;" edge="1" parent="1" source="recA4Ju6VlsZRzYj6V2U-57" target="recA4Ju6VlsZRzYj6V2U-59">
          <mxGeometry relative="1" as="geometry">
            <Array as="points">
              <mxPoint x="501" y="754" />
            </Array>
          </mxGeometry>
        </mxCell>
        <mxCell id="recA4Ju6VlsZRzYj6V2U-57" value="Reset&lt;div&gt;Mach number&lt;/div&gt;" style="rounded=1;whiteSpace=wrap;html=1;fontSize=12;startSize=30;fontStyle=0;strokeWidth=2;" vertex="1" parent="1">
          <mxGeometry x="455" y="550" width="91.25" height="40" as="geometry" />
        </mxCell>
        <mxCell id="recA4Ju6VlsZRzYj6V2U-58" style="edgeStyle=orthogonalEdgeStyle;rounded=0;orthogonalLoop=1;jettySize=auto;html=1;exitX=0.75;exitY=1;exitDx=0;exitDy=0;entryX=1;entryY=0.25;entryDx=0;entryDy=0;strokeWidth=2;" edge="1" parent="1" source="recA4Ju6VlsZRzYj6V2U-59" target="recA4Ju6VlsZRzYj6V2U-61">
          <mxGeometry relative="1" as="geometry" />
        </mxCell>
        <mxCell id="recA4Ju6VlsZRzYj6V2U-59" value="Initial Mach number" style="rounded=1;whiteSpace=wrap;html=1;fontSize=12;startSize=30;fontStyle=0;strokeWidth=2;" vertex="1" parent="1">
          <mxGeometry x="345" y="739" width="120" height="30" as="geometry" />
        </mxCell>
        <mxCell id="recA4Ju6VlsZRzYj6V2U-60" style="edgeStyle=orthogonalEdgeStyle;rounded=0;orthogonalLoop=1;jettySize=auto;html=1;exitX=1;exitY=0.75;exitDx=0;exitDy=0;entryX=0;entryY=0.5;entryDx=0;entryDy=0;strokeWidth=2;" edge="1" parent="1" source="recA4Ju6VlsZRzYj6V2U-61" target="recA4Ju6VlsZRzYj6V2U-63">
          <mxGeometry relative="1" as="geometry" />
        </mxCell>
        <mxCell id="recA4Ju6VlsZRzYj6V2U-61" value="&lt;b&gt;&lt;font style=&quot;font-size: 14px;&quot;&gt;New parameters&lt;/font&gt;&lt;/b&gt;&lt;div&gt;&lt;i&gt;hydraulic diameter, total temperature, dynamic viscosity, friction factor&lt;/i&gt;&lt;/div&gt;" style="rounded=1;whiteSpace=wrap;html=1;fontSize=12;startSize=30;fontStyle=0;strokeWidth=2;" vertex="1" parent="1">
          <mxGeometry x="200" y="780" width="195" height="70" as="geometry" />
        </mxCell>
        <mxCell id="recA4Ju6VlsZRzYj6V2U-62" style="edgeStyle=orthogonalEdgeStyle;rounded=0;orthogonalLoop=1;jettySize=auto;html=1;exitX=0.5;exitY=1;exitDx=0;exitDy=0;entryX=0.5;entryY=0;entryDx=0;entryDy=0;strokeWidth=2;" edge="1" parent="1" source="recA4Ju6VlsZRzYj6V2U-63" target="recA4Ju6VlsZRzYj6V2U-65">
          <mxGeometry relative="1" as="geometry" />
        </mxCell>
        <mxCell id="recA4Ju6VlsZRzYj6V2U-63" value="Vector &lt;b&gt;Forcers&lt;/b&gt;" style="rounded=1;whiteSpace=wrap;html=1;fontSize=12;startSize=30;fontStyle=0;strokeWidth=2;" vertex="1" parent="1">
          <mxGeometry x="446.25" y="830" width="100" height="30" as="geometry" />
        </mxCell>
        <mxCell id="recA4Ju6VlsZRzYj6V2U-64" style="edgeStyle=orthogonalEdgeStyle;rounded=0;orthogonalLoop=1;jettySize=auto;html=1;exitX=0;exitY=0.5;exitDx=0;exitDy=0;entryX=1;entryY=0.5;entryDx=0;entryDy=0;strokeWidth=2;" edge="1" parent="1" source="recA4Ju6VlsZRzYj6V2U-65" target="recA4Ju6VlsZRzYj6V2U-67">
          <mxGeometry relative="1" as="geometry" />
        </mxCell>
        <mxCell id="recA4Ju6VlsZRzYj6V2U-65" value="&lt;span style=&quot;font-size: 14px;&quot;&gt;&lt;b&gt;MCI&lt;/b&gt;&lt;/span&gt;&lt;div&gt;&lt;span style=&quot;font-size: 14px;&quot;&gt;Matrix of the Coefficients of Influence&lt;/span&gt;&lt;/div&gt;" style="rounded=1;whiteSpace=wrap;html=1;fontSize=12;startSize=30;fontStyle=0;strokeWidth=2;" vertex="1" parent="1">
          <mxGeometry x="447.5" y="885" width="98.75" height="70" as="geometry" />
        </mxCell>
        <mxCell id="recA4Ju6VlsZRzYj6V2U-66" style="edgeStyle=orthogonalEdgeStyle;rounded=0;orthogonalLoop=1;jettySize=auto;html=1;entryX=0.5;entryY=0;entryDx=0;entryDy=0;strokeWidth=2;" edge="1" parent="1" source="recA4Ju6VlsZRzYj6V2U-67" target="recA4Ju6VlsZRzYj6V2U-69">
          <mxGeometry relative="1" as="geometry" />
        </mxCell>
        <mxCell id="recA4Ju6VlsZRzYj6V2U-67" value="&lt;b&gt;&lt;font style=&quot;font-size: 14px;&quot;&gt;Reactions&lt;/font&gt;&lt;/b&gt;&lt;div&gt;{&lt;b&gt;React&lt;/b&gt;} = [&lt;b&gt;MCI&lt;/b&gt;]•{&lt;b&gt;Forcers&lt;/b&gt;}&lt;/div&gt;&lt;div&gt;&lt;br&gt;&lt;/div&gt;&lt;div&gt;&lt;b&gt;&lt;font style=&quot;font-size: 14px;&quot;&gt;Characteristics of the Flow&lt;/font&gt;&lt;/b&gt;&lt;/div&gt;&lt;div&gt;&lt;i&gt;Mach number, Temperature, Density, Total Pressure,...&lt;/i&gt;&lt;/div&gt;" style="rounded=1;whiteSpace=wrap;html=1;fontSize=12;startSize=30;fontStyle=0;strokeWidth=2;" vertex="1" parent="1">
          <mxGeometry x="200" y="870" width="195" height="100" as="geometry" />
        </mxCell>
        <mxCell id="recA4Ju6VlsZRzYj6V2U-68" style="edgeStyle=orthogonalEdgeStyle;rounded=0;orthogonalLoop=1;jettySize=auto;html=1;exitX=0;exitY=0.5;exitDx=0;exitDy=0;entryX=0;entryY=0.5;entryDx=0;entryDy=0;strokeWidth=2;" edge="1" parent="1" source="recA4Ju6VlsZRzYj6V2U-69" target="recA4Ju6VlsZRzYj6V2U-28">
          <mxGeometry relative="1" as="geometry">
            <mxPoint x="205" y="330" as="targetPoint" />
            <Array as="points">
              <mxPoint x="175" y="1045" />
              <mxPoint x="175" y="225" />
            </Array>
          </mxGeometry>
        </mxCell>
        <mxCell id="recA4Ju6VlsZRzYj6V2U-69" value="{time constant}&lt;div&gt;&lt;br&gt;&lt;/div&gt;&lt;div&gt;Vectorization, and ready for next step&lt;/div&gt;" style="rounded=1;whiteSpace=wrap;html=1;fontSize=12;startSize=30;fontStyle=0;strokeWidth=2;" vertex="1" parent="1">
          <mxGeometry x="319.38" y="1010" width="111.25" height="70" as="geometry" />
        </mxCell>
        <mxCell id="recA4Ju6VlsZRzYj6V2U-70" style="edgeStyle=orthogonalEdgeStyle;rounded=0;orthogonalLoop=1;jettySize=auto;html=1;exitX=0;exitY=0.5;exitDx=0;exitDy=0;entryX=0;entryY=0.5;entryDx=0;entryDy=0;strokeWidth=2;" edge="1" parent="1" source="recA4Ju6VlsZRzYj6V2U-71" target="recA4Ju6VlsZRzYj6V2U-23">
          <mxGeometry relative="1" as="geometry">
            <Array as="points">
              <mxPoint x="165" y="1125" />
              <mxPoint x="165" y="45" />
            </Array>
          </mxGeometry>
        </mxCell>
        <mxCell id="recA4Ju6VlsZRzYj6V2U-71" value="{time constant}&lt;div&gt;&lt;br&gt;&lt;/div&gt;&lt;div&gt;Vectorization, and ready for next step&lt;/div&gt;" style="rounded=1;whiteSpace=wrap;html=1;fontSize=12;startSize=30;fontStyle=0;strokeWidth=2;" vertex="1" parent="1">
          <mxGeometry x="319.38" y="1090" width="111.25" height="70" as="geometry" />
        </mxCell>
        <mxCell id="recA4Ju6VlsZRzYj6V2U-72" value="Vectorial Results" style="swimlane;fontStyle=1;childLayout=stackLayout;horizontal=1;startSize=26;fillColor=default;horizontalStack=0;resizeParent=1;resizeParentMax=0;resizeLast=0;collapsible=1;marginBottom=0;html=1;fontSize=14;strokeWidth=2;" vertex="1" parent="1">
          <mxGeometry x="502.5" y="89" width="160" height="106" as="geometry" />
        </mxCell>
        <mxCell id="recA4Ju6VlsZRzYj6V2U-73" value="Mach Number" style="text;strokeColor=none;fillColor=none;align=center;verticalAlign=top;spacingLeft=4;spacingRight=4;overflow=hidden;rotatable=0;points=[[0,0.5],[1,0.5]];portConstraint=eastwest;whiteSpace=wrap;html=1;fontStyle=2" vertex="1" parent="recA4Ju6VlsZRzYj6V2U-72">
          <mxGeometry y="26" width="160" height="26" as="geometry" />
        </mxCell>
        <mxCell id="recA4Ju6VlsZRzYj6V2U-74" value="Temperature" style="text;strokeColor=none;fillColor=none;align=center;verticalAlign=top;spacingLeft=4;spacingRight=4;overflow=hidden;rotatable=0;points=[[0,0.5],[1,0.5]];portConstraint=eastwest;whiteSpace=wrap;html=1;fontStyle=2" vertex="1" parent="recA4Ju6VlsZRzYj6V2U-72">
          <mxGeometry y="52" width="160" height="28" as="geometry" />
        </mxCell>
        <mxCell id="recA4Ju6VlsZRzYj6V2U-75" value="Total Pressure" style="text;strokeColor=none;fillColor=none;align=center;verticalAlign=top;spacingLeft=4;spacingRight=4;overflow=hidden;rotatable=0;points=[[0,0.5],[1,0.5]];portConstraint=eastwest;whiteSpace=wrap;html=1;fontStyle=2" vertex="1" parent="recA4Ju6VlsZRzYj6V2U-72">
          <mxGeometry y="80" width="160" height="26" as="geometry" />
        </mxCell>
      </root>
    </mxGraphModel>
  </diagram>
</mxfile>
